<?xml version="1.0" standalone="no"?>
<!DOCTYPE svg PUBLIC "-//W3C//DTD SVG 20010904//EN"
 "http://www.w3.org/TR/2001/REC-SVG-20010904/DTD/svg10.dtd">
<svg version="1.0" xmlns="http://www.w3.org/2000/svg"
 width="512.000000pt" height="512.000000pt" viewBox="0 0 512.000000 512.000000"
 preserveAspectRatio="xMidYMid meet">
<metadata>
Created by potrace 1.14, written by Peter Selinger 2001-2017
</metadata>
<g transform="translate(0.000000,512.000000) scale(0.100000,-0.100000)"
fill="#000000" stroke="none">
<path d="M2620 4563 c0 -9 -13 -12 -39 -10 -37 3 -39 2 -29 -16 7 -14 7 -17
-1 -13 -11 7 -14 -1 -14 -36 0 -10 -3 -18 -8 -18 -5 0 -4 -11 1 -25 9 -24 8
-25 -11 -14 -17 9 -20 8 -14 -2 11 -17 12 -68 2 -62 -5 3 -7 -8 -5 -23 1 -16
-2 -28 -7 -27 -6 1 -10 -11 -9 -25 1 -15 -4 -33 -10 -41 -9 -12 -8 -13 4 -6
13 8 13 7 0 -9 -16 -21 -23 -49 -9 -40 5 3 6 10 3 16 -4 7 -2 8 4 4 9 -5 9
-12 0 -26 -7 -10 -15 -17 -19 -15 -3 3 -5 -9 -3 -25 2 -17 0 -30 -5 -30 -5 0
-12 -7 -15 -16 -6 -15 -4 -15 10 -3 16 13 16 12 4 -8 -8 -12 -17 -20 -20 -18
-4 2 -4 -10 -2 -27 3 -18 1 -28 -5 -25 -5 3 -10 0 -10 -8 0 -8 4 -12 9 -9 4 3
8 1 8 -4 0 -6 -6 -12 -13 -15 -7 -3 -12 -19 -12 -38 1 -19 -2 -39 -7 -46 -6
-7 -11 -22 -13 -35 -1 -13 -6 -32 -11 -42 -6 -15 -4 -18 7 -12 8 4 3 -3 -11
-15 -14 -12 -18 -20 -9 -17 9 4 16 1 16 -8 0 -7 -4 -11 -8 -8 -4 2 -10 0 -14
-6 -3 -5 -1 -10 6 -10 8 0 8 -4 2 -12 -6 -7 -10 -25 -9 -40 1 -14 -2 -24 -6
-22 -4 3 -8 4 -8 2 -7 -56 -14 -84 -21 -86 -5 -2 -9 -8 -9 -13 0 -6 5 -7 12
-3 6 4 4 -3 -4 -15 -9 -13 -14 -34 -12 -48 4 -20 1 -24 -10 -20 -12 5 -13 1
-6 -18 6 -16 6 -27 -2 -31 -7 -5 -8 -3 -3 6 5 9 4 11 -3 6 -8 -5 -9 -13 -2
-25 5 -10 6 -21 3 -25 -9 -9 -15 -35 -15 -70 0 -20 -3 -25 -9 -15 -6 10 -9 3
-9 -20 0 -19 -8 -43 -17 -54 -10 -11 -13 -17 -6 -14 6 4 14 3 17 -2 3 -5 0
-11 -7 -14 -8 -3 -13 -16 -12 -29 1 -12 -5 -32 -14 -43 -15 -18 -15 -19 1 -7
14 11 16 11 11 -7 -3 -12 -13 -21 -22 -21 -9 0 -12 -3 -6 -8 12 -8 13 -22 4
-37 -4 -5 -5 -20 -4 -32 1 -12 -3 -21 -9 -20 -10 2 -11 -3 -14 -51 -1 -13 -6
-21 -10 -18 -5 3 -9 -1 -9 -9 0 -8 3 -12 7 -10 4 2 7 -2 7 -10 0 -8 -5 -11
-10 -8 -6 4 -8 0 -5 -9 4 -8 2 -21 -2 -29 -5 -7 -5 -18 1 -25 7 -8 6 -15 -2
-20 -8 -5 -10 -3 -4 7 6 11 5 11 -4 3 -7 -6 -13 -25 -15 -42 -1 -17 -5 -35 -9
-38 -4 -4 -1 -14 6 -22 6 -9 7 -13 1 -10 -5 4 -15 -6 -21 -23 -6 -16 -7 -29
-2 -29 5 0 9 5 9 12 0 6 3 9 6 5 3 -3 -4 -20 -17 -38 -13 -18 -18 -29 -11 -25
8 4 11 -2 9 -22 -1 -16 -7 -28 -12 -25 -6 2 -10 -11 -10 -32 1 -22 -3 -34 -9
-32 -7 3 -12 -12 -14 -36 -1 -23 -8 -45 -15 -49 -9 -6 -9 -8 0 -8 6 0 9 -9 6
-20 -3 -11 -9 -20 -13 -20 -4 0 -6 -14 -4 -31 3 -22 0 -28 -9 -23 -9 5 -9 4 0
-6 14 -15 101 -21 109 -8 3 5 11 5 17 1 7 -4 52 -7 100 -8 79 0 88 2 83 17 -3
14 0 16 13 9 14 -8 16 -4 15 27 -1 21 5 47 12 59 12 19 12 23 -4 32 -15 9 -14
10 8 11 18 0 21 3 11 9 -11 7 -11 9 0 14 11 4 11 6 1 6 -10 1 -10 6 -2 21 6
11 8 25 5 30 -3 6 -1 10 5 10 6 0 8 5 5 10 -3 6 0 10 7 10 9 0 9 3 -2 10 -9 6
-10 10 -3 10 6 0 10 9 8 20 -2 11 0 20 5 20 4 0 6 9 3 20 -4 16 -2 19 13 14
18 -6 18 -6 0 8 -17 13 -17 15 -3 21 9 3 14 13 11 21 -3 8 0 17 6 21 8 5 8 11
-1 21 -9 11 -8 14 3 14 8 0 15 8 15 18 -1 49 4 73 13 67 6 -3 7 1 4 10 -4 8 0
23 7 32 12 14 12 16 -1 8 -13 -8 -13 -7 -1 8 7 9 10 17 7 17 -4 0 -2 8 3 18 6
11 6 24 -2 37 -9 18 -9 18 6 7 14 -12 15 -11 11 12 -2 15 0 26 6 26 6 0 8 4 5
10 -3 5 0 20 6 32 12 22 11 22 -6 8 -17 -14 -18 -14 -6 8 7 12 16 20 22 17 12
-8 7 18 -6 27 -6 5 -6 8 1 8 7 0 15 7 18 16 3 8 2 12 -4 9 -6 -3 -10 -2 -10 4
0 5 5 13 10 16 6 4 8 11 5 16 -4 5 2 9 12 9 17 1 17 1 -1 12 -18 10 -18 11 5
30 13 11 19 17 12 14 -6 -4 -14 -2 -18 4 -3 5 1 10 10 10 9 0 14 4 11 9 -4 5
0 12 6 14 7 3 4 6 -7 7 -17 0 -18 2 -4 10 9 5 16 20 15 32 -1 13 5 29 12 37
11 12 11 15 0 22 -12 8 -4 13 16 10 5 -1 4 5 -4 13 -10 13 -10 16 1 16 12 0
12 2 1 9 -11 7 -10 9 3 14 13 5 14 11 5 27 -8 15 -8 20 1 18 6 -2 13 5 14 15
3 15 1 16 -13 5 -16 -12 -16 -11 -1 7 8 11 15 27 14 35 0 8 5 20 11 27 6 6 10
23 9 37 -2 14 1 26 5 26 5 0 7 14 5 31 -3 24 -1 30 11 25 12 -5 12 -2 3 15 -9
17 -8 20 2 14 9 -6 11 -3 6 8 -3 10 -2 17 3 17 6 0 10 5 10 11 0 5 -4 8 -9 5
-5 -4 -7 3 -4 13 3 13 10 18 21 13 15 -5 15 -4 0 12 -22 21 -23 27 -4 20 11
-4 13 0 9 14 -2 11 0 23 6 26 8 5 8 13 1 26 -7 13 -7 21 2 26 7 5 8 3 3 -6 -5
-9 -4 -11 4 -6 9 6 9 11 1 21 -8 10 -7 16 7 24 12 7 13 10 4 11 -10 0 -11 3
-2 13 8 10 7 17 -2 26 -6 7 -7 12 -2 11 28 -6 36 0 21 16 -9 8 -16 21 -16 27
0 7 4 6 10 -3 5 -8 10 -13 11 -10 0 3 2 22 4 43 2 21 8 43 13 50 6 7 9 25 8
40 -2 15 1 27 7 27 6 0 7 3 4 7 -4 3 1 16 10 27 17 20 17 20 0 7 -15 -12 -17
-12 -11 3 3 9 10 16 15 16 4 0 7 12 6 28 -2 22 2 26 17 24 18 -3 18 -3 2 14
-14 14 -15 19 -4 25 7 5 9 9 4 9 -5 0 -4 6 3 13 8 10 7 17 -1 25 -9 9 -9 12 0
12 6 0 12 10 12 23 1 62 5 75 18 65 9 -8 11 -7 6 6 -3 9 -11 17 -18 17 -6 1
-18 2 -26 3 -8 1 -20 -2 -27 -7 -6 -4 -14 -4 -17 1 -3 5 -19 8 -36 6 -23 -3
-29 0 -24 9 6 9 4 9 -7 1 -17 -14 -81 -14 -91 1 -5 6 -8 6 -8 -2z"/>
<path d="M1792 4253 c2 -4 -10 -20 -25 -35 -15 -15 -27 -24 -27 -20 0 4 -5 -1
-11 -10 -5 -10 -17 -18 -25 -18 -8 0 -12 -4 -9 -10 3 -5 1 -10 -6 -10 -6 0
-18 -8 -26 -17 -8 -10 -12 -13 -9 -6 4 6 1 15 -5 19 -8 4 -9 3 -5 -5 4 -6 0
-14 -8 -17 -9 -3 -14 -10 -11 -14 3 -4 -2 -11 -11 -14 -10 -4 -13 -2 -8 6 4 7
3 8 -4 4 -7 -4 -12 -14 -12 -22 0 -8 -4 -12 -10 -9 -5 3 -10 1 -10 -5 0 -6 -4
-9 -9 -6 -5 3 -11 -4 -15 -17 -5 -18 -8 -20 -16 -7 -9 14 -15 7 -11 -14 1 -5
-6 -5 -16 -2 -9 4 -14 4 -11 0 10 -9 -19 -35 -41 -37 -11 0 -17 -5 -15 -9 3
-4 0 -8 -6 -8 -6 0 -8 -5 -4 -12 4 -7 3 -8 -5 -4 -7 4 -26 -8 -46 -29 -20 -20
-40 -33 -45 -30 -5 3 -15 -3 -22 -15 -7 -11 -17 -20 -21 -20 -5 0 -17 -10 -28
-22 -17 -21 -18 -21 -13 -3 7 20 7 20 -9 0 -8 -11 -13 -24 -10 -29 4 -5 1 -6
-5 -2 -6 3 -15 -2 -21 -11 -5 -10 -12 -17 -15 -15 -15 6 -26 1 -20 -10 5 -8 2
-9 -9 -5 -9 3 -19 1 -23 -5 -5 -7 -2 -8 7 -4 8 4 6 1 -4 -8 -11 -8 -26 -12
-35 -9 -13 4 -14 3 -4 -5 10 -7 7 -13 -14 -26 -17 -12 -24 -14 -19 -5 4 8 -6
-1 -22 -18 -16 -18 -32 -33 -37 -33 -4 0 -14 -7 -23 -15 -8 -8 -19 -12 -25 -9
-6 4 -8 2 -4 -4 3 -6 -3 -13 -14 -17 -11 -4 -18 -10 -15 -15 3 -5 1 -11 -5
-15 -5 -3 -10 -1 -10 5 0 6 -5 8 -10 5 -6 -4 -8 -10 -5 -15 3 -4 -7 -11 -20
-14 -15 -4 -30 -18 -35 -32 -5 -13 -17 -27 -26 -31 -13 -5 -13 -7 -2 -14 10
-6 8 -9 -7 -9 -15 0 -16 -3 -7 -9 17 -10 21 -38 11 -73 -5 -17 -3 -30 3 -34 7
-5 8 -2 4 7 -4 8 1 4 10 -8 9 -13 23 -23 30 -23 8 0 14 -7 14 -15 0 -14 12
-20 34 -16 5 1 6 -5 3 -13 -4 -9 -3 -15 1 -15 25 4 42 -3 42 -17 0 -10 5 -14
16 -10 10 4 13 2 8 -6 -5 -8 -1 -9 12 -4 10 4 15 4 12 0 -8 -8 14 -34 25 -27
4 2 7 -3 7 -12 0 -9 5 -13 10 -10 6 3 10 1 10 -4 0 -6 10 -11 22 -11 12 0 19
-3 15 -6 -6 -7 3 -17 37 -44 18 -13 19 -13 12 0 -4 8 1 5 11 -6 10 -12 32 -27
50 -35 26 -11 30 -16 20 -29 -6 -8 -8 -12 -3 -8 13 11 48 -11 40 -24 -5 -7 -2
-9 9 -5 10 4 20 0 26 -11 6 -9 11 -13 11 -8 0 5 9 -1 19 -13 14 -16 21 -18 24
-9 4 9 6 9 6 -2 1 -17 56 -57 73 -52 7 2 7 -3 -2 -12 -11 -14 -9 -16 14 -16
14 0 26 -4 26 -10 0 -5 7 -10 16 -10 8 0 12 -4 9 -10 -3 -5 1 -10 9 -10 9 0
16 -5 16 -11 0 -6 7 -9 14 -6 11 4 13 1 9 -10 -4 -10 -2 -14 4 -10 13 8 56
-27 46 -37 -4 -4 0 -4 10 0 12 4 17 1 17 -11 0 -9 4 -14 9 -10 5 3 16 -1 24
-9 8 -8 18 -12 22 -8 5 4 5 2 1 -5 -7 -13 27 -37 38 -26 3 3 6 -2 6 -12 0 -10
3 -15 6 -12 4 4 15 -3 25 -15 11 -11 19 -18 19 -14 0 4 14 -7 30 -24 17 -17
30 -26 30 -20 0 6 4 9 9 5 10 -6 5 40 -6 59 -4 6 2 4 12 -4 19 -15 19 -14 3
11 -15 24 -15 27 0 44 16 17 16 17 0 12 -22 -8 -23 0 -3 19 14 15 10 48 -5 39
-5 -3 -6 4 -3 15 3 11 10 20 15 20 5 0 6 5 3 10 -5 8 -12 7 -23 -2 -14 -11
-14 -9 1 8 17 21 23 39 10 31 -5 -3 -8 5 -8 18 0 13 3 21 6 19 4 -2 9 3 13 11
3 8 0 17 -6 21 -7 5 -8 2 -3 -6 5 -9 4 -11 -4 -6 -9 6 -9 11 0 22 9 11 9 14 0
14 -7 0 -9 5 -5 12 4 6 3 8 -3 5 -11 -7 -56 27 -47 36 3 3 -3 4 -13 4 -10 -1
-17 4 -15 11 1 8 -2 11 -7 8 -5 -3 -14 1 -21 9 -7 8 -16 12 -21 9 -5 -3 -9 -2
-8 3 1 4 1 15 0 23 -1 13 -2 13 -11 0 -8 -13 -10 -12 -10 3 0 10 -8 17 -20 17
-11 0 -25 9 -32 20 -7 11 -19 20 -26 20 -8 0 -10 5 -6 13 5 8 2 7 -9 -2 -16
-12 -17 -12 -11 5 4 10 4 16 -1 12 -4 -4 -16 2 -26 14 -11 11 -19 17 -19 12 0
-5 -5 -1 -11 9 -5 9 -17 17 -24 17 -8 0 -15 5 -15 10 0 6 -10 10 -22 10 -19 0
-20 2 -8 10 12 8 10 10 -8 10 -13 0 -20 4 -17 10 4 6 -6 10 -22 10 -16 0 -23
4 -17 8 9 5 8 11 -2 20 -8 7 -14 9 -14 5 0 -4 -5 0 -11 10 -5 9 -24 24 -42 33
-18 9 -40 26 -50 38 -10 11 -16 14 -12 6 4 -9 0 -7 -9 3 -16 20 -11 48 7 44 7
-1 11 4 10 10 -2 7 0 12 5 12 22 -4 34 3 29 15 -4 11 -1 13 10 9 9 -4 19 1 25
10 5 10 18 17 28 17 14 0 18 5 13 17 -4 11 -3 14 5 9 14 -8 53 24 45 37 -3 6
-1 7 5 3 6 -3 17 0 25 8 8 8 17 12 21 9 3 -3 8 2 12 11 3 9 10 13 15 10 5 -3
9 2 9 10 0 15 12 21 34 17 5 -1 6 5 3 13 -4 10 0 14 14 11 12 -2 19 2 19 11 0
13 12 19 33 15 5 -1 6 3 2 9 -3 5 -2 10 3 10 5 0 22 12 37 28 16 15 25 21 21
15 -5 -9 -2 -11 8 -7 8 3 17 12 20 20 3 9 11 12 17 8 7 -4 9 -3 6 3 -4 6 3 19
16 29 21 19 21 19 8 -1 -7 -11 -1 -7 14 10 26 27 40 34 72 37 7 1 10 5 7 10
-3 5 -11 6 -17 2 -7 -3 -4 1 6 9 20 16 23 32 5 20 -7 -4 -5 5 4 19 13 19 15
29 6 34 -7 5 -8 3 -3 -6 6 -9 4 -11 -4 -5 -9 5 -10 10 -2 18 12 12 15 31 4 24
-5 -3 -8 5 -8 18 0 13 3 21 6 19 4 -2 9 3 13 11 3 8 0 17 -6 21 -7 5 -8 2 -3
-6 6 -9 4 -11 -4 -6 -9 6 -8 13 6 29 10 11 13 17 7 14 -13 -8 -23 11 -17 31 3
6 10 9 16 5 7 -4 5 1 -3 11 -20 25 -22 46 -3 39 13 -5 12 0 -3 23 -18 29 -18
29 1 14 18 -14 19 -14 7 2 -8 9 -10 23 -6 30 4 7 -3 4 -16 -7 -13 -11 -20 -15
-17 -8 4 6 3 15 -3 18 -6 4 -9 3 -8 -2z"/>
<path d="M3056 4251 c-3 -5 -3 -17 1 -27 5 -13 3 -15 -8 -10 -8 4 -3 -2 11
-15 l25 -22 -25 8 c-21 7 -23 6 -13 -7 13 -15 11 -77 -3 -100 -5 -9 -2 -9 11
2 17 14 18 13 8 -5 -5 -11 -9 -37 -9 -58 1 -20 -3 -37 -8 -37 -5 0 2 -10 15
-21 l24 -21 -25 7 c-21 7 -23 6 -13 -7 10 -11 10 -17 1 -26 -9 -9 -7 -11 9 -8
17 4 19 0 15 -22 -5 -24 -3 -25 10 -14 13 10 18 10 24 1 5 -8 3 -9 -6 -4 -9 5
-11 4 -6 -3 4 -7 14 -12 22 -12 8 0 14 -4 14 -10 0 -5 7 -10 16 -10 9 0 18 -9
21 -21 4 -16 8 -17 14 -7 7 10 9 9 9 -5 0 -9 6 -16 13 -15 7 2 11 -5 9 -17 -2
-15 -1 -17 6 -6 11 16 32 6 32 -14 0 -9 6 -12 16 -8 10 4 17 -1 20 -15 4 -14
11 -18 26 -14 14 3 19 1 14 -6 -4 -7 -2 -12 4 -12 16 0 60 -47 52 -55 -4 -4
-2 -6 3 -5 23 5 46 -1 40 -10 -3 -5 1 -10 9 -10 9 0 16 -5 16 -11 0 -5 5 -7
10 -4 6 3 10 -1 10 -11 0 -14 3 -14 16 -4 8 8 14 9 13 4 -4 -21 2 -34 16 -34
8 0 15 -4 15 -10 0 -5 7 -10 16 -10 9 0 14 -6 11 -14 -4 -9 2 -12 18 -10 17 1
22 -2 18 -12 -3 -9 2 -12 16 -9 12 2 21 -1 21 -8 0 -7 9 -18 20 -25 20 -12 20
-13 3 -36 -10 -13 -26 -22 -35 -21 -12 3 -15 -1 -11 -13 3 -9 3 -14 -2 -10 -4
4 -14 0 -22 -8 -9 -8 -22 -13 -31 -9 -13 5 -13 3 -1 -12 9 -11 10 -14 2 -9 -8
4 -13 2 -13 -4 0 -6 -5 -8 -10 -5 -6 3 -13 -1 -16 -9 -3 -9 -11 -13 -17 -9 -6
4 -8 0 -4 -11 4 -9 3 -14 -2 -11 -5 3 -13 0 -16 -6 -4 -5 -14 -8 -22 -4 -14 5
-14 3 -2 -12 9 -11 10 -14 2 -9 -7 4 -13 2 -13 -4 0 -8 -6 -8 -20 0 -16 9 -18
8 -14 -5 4 -10 0 -15 -11 -15 -9 0 -13 -4 -10 -10 6 -9 -8 -14 -28 -11 -5 1
-6 -3 -2 -9 3 -5 1 -10 -5 -10 -6 0 -8 -5 -4 -12 4 -6 3 -8 -4 -4 -6 3 -18 -1
-26 -10 -9 -8 -16 -12 -16 -8 0 4 -8 -3 -19 -14 -10 -12 -21 -19 -25 -15 -3 3
-6 1 -6 -6 0 -8 -6 -11 -16 -7 -15 6 -15 4 -3 -11 8 -9 9 -14 3 -10 -7 4 -17
0 -24 -8 -7 -8 -16 -12 -21 -9 -5 3 -9 -3 -9 -13 0 -14 -2 -15 -9 -5 -6 10
-10 9 -14 -7 -3 -14 -13 -21 -29 -21 -18 0 -20 -2 -8 -10 13 -8 12 -10 -2 -10
-10 0 -18 -5 -18 -11 0 -5 -4 -7 -10 -4 -5 3 -10 1 -10 -5 0 -6 -4 -9 -9 -6
-5 3 -11 -1 -15 -9 -3 -8 3 -19 12 -25 14 -9 12 -10 -8 -4 -21 6 -23 5 -13 -8
9 -11 10 -17 1 -26 -8 -8 -7 -13 5 -18 9 -3 17 -10 17 -16 0 -5 -4 -6 -10 -3
-5 3 -10 -1 -10 -10 0 -10 5 -14 13 -9 9 5 9 4 0 -6 -6 -7 -9 -19 -6 -28 5
-11 2 -13 -8 -8 -8 4 -3 -2 11 -15 l25 -22 -25 8 c-21 7 -23 6 -13 -7 9 -11
10 -17 1 -26 -8 -8 -7 -13 6 -18 15 -6 15 -7 -1 -20 -12 -10 -13 -12 -3 -9 11
4 16 -3 16 -26 1 -20 -1 -27 -6 -18 -5 7 -6 17 -3 23 3 5 1 6 -5 2 -7 -4 -8
-15 -3 -29 4 -12 6 -27 4 -34 -9 -26 18 -21 49 10 19 18 40 31 47 29 6 -2 10
2 9 10 -2 7 3 12 10 11 10 -3 16 8 14 28 -1 3 10 5 24 3 13 -1 22 2 18 7 -3 5
0 9 6 9 6 0 9 4 6 9 -4 5 5 8 19 7 13 -2 22 1 19 5 -3 5 5 19 17 31 12 13 19
17 15 11 -12 -22 6 -14 30 13 14 14 29 22 36 18 7 -4 8 -3 4 4 -4 7 -2 12 4
12 6 0 9 4 6 9 -3 5 1 12 10 15 10 4 13 2 8 -7 -3 -6 6 2 21 18 14 17 24 24
20 18 -4 -9 -1 -11 9 -7 9 3 13 10 10 15 -3 5 1 9 9 9 8 0 17 7 21 15 3 8 17
20 31 25 14 5 25 14 25 20 0 6 5 8 12 4 7 -5 9 -2 5 9 -4 12 -1 15 14 12 11
-2 22 2 25 10 3 8 17 21 31 30 15 10 22 12 18 4 -5 -8 -4 -10 3 -5 7 4 12 14
12 22 0 9 6 14 12 12 7 -3 21 6 32 19 10 14 25 22 33 19 8 -3 11 -1 8 4 -3 6
-1 10 5 10 6 0 9 4 6 9 -3 5 1 12 10 15 10 4 13 2 9 -7 -4 -6 0 -4 8 5 8 10
16 16 18 14 2 -2 13 6 24 17 11 11 14 16 6 12 -9 -5 -12 -4 -7 3 4 6 14 8 24
5 9 -3 14 -2 10 2 -11 11 29 38 44 29 7 -5 8 -3 4 5 -5 8 -1 14 12 18 11 2 22
13 25 24 3 12 12 17 26 14 12 -2 19 0 16 5 -3 5 4 11 15 15 11 4 18 11 15 16
-4 5 -1 10 4 10 6 1 15 2 20 3 5 0 13 5 18 10 5 5 2 6 -7 2 -8 -4 -4 2 10 14
14 12 18 19 10 15 -10 -4 -9 -1 3 8 18 15 23 28 10 26 -22 -4 -25 3 -7 17 10
8 14 13 7 10 -6 -4 -14 -2 -18 4 -3 5 -1 10 4 10 6 0 11 5 11 11 0 5 -4 8 -8
5 -5 -3 -9 1 -9 9 0 8 4 12 9 9 4 -3 8 2 8 11 0 9 -5 13 -10 10 -6 -3 -13 1
-16 9 -3 9 -13 16 -21 16 -8 0 -11 4 -8 10 3 6 -1 7 -9 4 -10 -4 -16 -1 -16 9
0 9 -5 19 -12 23 -7 5 -8 3 -3 -7 8 -12 6 -12 -8 0 -9 7 -17 20 -17 27 0 8 -5
14 -11 14 -5 0 -7 -6 -3 -12 5 -7 -7 -1 -25 15 -18 15 -37 25 -42 22 -5 -4 -6
2 -2 11 5 14 3 16 -12 10 -11 -4 -16 -4 -13 0 8 8 -16 34 -32 34 -6 0 -8 5 -5
10 5 9 -16 15 -38 11 -5 -1 -6 3 -2 9 3 5 -1 10 -10 10 -10 0 -13 5 -9 12 5 8
2 9 -9 5 -11 -4 -17 -1 -17 9 0 9 -5 12 -12 8 -8 -5 -9 -2 -5 9 7 18 -8 24
-18 7 -10 -16 -25 -1 -18 17 4 10 2 14 -4 10 -6 -4 -13 0 -17 8 -3 8 -12 15
-21 15 -8 0 -15 5 -15 11 0 5 -4 7 -10 4 -5 -3 -10 1 -10 10 0 9 -4 14 -9 11
-12 -8 -52 29 -43 40 4 4 -1 2 -10 -5 -12 -9 -18 -10 -18 -2 0 15 -37 51 -52
51 -18 1 -49 26 -41 33 3 4 -1 7 -10 7 -9 0 -17 6 -17 14 0 8 -7 17 -16 20
-15 6 -15 4 -3 -11 13 -17 13 -17 -7 0 -11 9 -25 14 -29 10 -5 -5 -3 0 4 10
12 15 11 17 -8 17 -11 0 -21 5 -21 10 0 6 -7 10 -16 10 -8 0 -12 5 -9 10 6 9
-8 15 -29 11 -5 -1 -6 5 -2 14 3 10 2 14 -5 10 -5 -4 -18 2 -28 14 -10 11 -21
18 -25 14 -3 -3 -6 -1 -6 6 0 7 -4 10 -9 6 -5 -3 -13 4 -16 15 -6 18 -9 19
-23 8 -10 -7 -14 -9 -11 -5 8 10 -34 57 -50 57 -7 0 -9 5 -5 13 4 6 4 9 -1 5
-4 -4 -14 -3 -21 3 -8 6 -14 6 -18 0z m18 -17 c3 -8 2 -12 -4 -9 -6 3 -10 10
-10 16 0 14 7 11 14 -7z m6 -1608 c0 -3 -4 -8 -10 -11 -5 -3 -10 -1 -10 4 0 6
5 11 10 11 6 0 10 -2 10 -4z"/>
<path d="M3457 3969 c7 -7 15 -10 18 -7 3 3 -2 9 -12 12 -14 6 -15 5 -6 -5z"/>
<path d="M1215 1929 c-5 -15 -10 -17 -20 -9 -10 8 -15 8 -20 0 -4 -7 -16 -10
-26 -7 -10 3 -17 0 -16 -6 1 -6 -2 -11 -8 -12 -21 -2 -55 -26 -55 -40 0 -8 -7
-15 -16 -15 -8 0 -12 -4 -9 -10 3 -5 1 -10 -5 -10 -7 0 -9 -7 -6 -16 3 -8 2
-13 -3 -10 -12 8 -9 -140 3 -151 5 -5 6 -2 1 6 -5 9 -4 12 3 7 7 -4 12 -13 12
-20 0 -8 15 -25 34 -39 24 -19 36 -23 44 -15 9 9 10 6 7 -11 -3 -19 -2 -21 10
-11 12 10 16 9 21 -4 3 -9 10 -13 15 -10 5 3 9 1 9 -3 0 -5 14 -9 32 -10 17 0
36 -7 42 -14 6 -8 17 -14 24 -15 28 -2 33 -4 28 -13 -4 -5 3 -7 14 -4 18 5 25
-5 21 -29 0 -5 3 -8 8 -8 5 0 8 -8 6 -17 -2 -10 -4 -21 -4 -25 -2 -15 -60 -38
-67 -27 -4 8 -9 7 -15 -2 -6 -10 -9 -11 -9 -1 0 6 -12 12 -26 12 -14 0 -23 4
-19 10 3 6 -1 10 -10 10 -9 0 -13 5 -10 10 3 6 -1 10 -9 10 -10 0 -13 6 -9 17
5 11 3 14 -6 8 -10 -5 -11 -2 -7 13 6 17 3 21 -14 19 -11 -1 -20 -6 -20 -12 0
-6 -3 -7 -8 0 -4 6 -13 11 -21 13 -11 2 -12 0 -3 -10 9 -11 7 -14 -9 -15 -12
-1 -17 2 -12 10 3 7 -3 3 -15 -7 -12 -11 -22 -14 -22 -8 0 9 -6 9 -25 0 -13
-6 -22 -15 -19 -19 3 -5 0 -9 -7 -9 -10 0 -10 -3 -1 -12 8 -8 8 -17 1 -30 -5
-10 -6 -18 -2 -17 19 3 34 -2 29 -10 -3 -5 1 -11 9 -15 8 -3 15 -12 15 -20 0
-7 16 -21 36 -31 19 -9 38 -23 41 -31 4 -11 9 -12 19 -3 11 9 14 8 14 -1 0 -7
7 -10 15 -6 8 3 15 1 15 -4 0 -6 5 -10 11 -10 5 0 7 4 4 10 -3 6 1 7 9 4 9 -3
14 -9 11 -13 -2 -4 2 -8 10 -8 8 0 12 4 9 9 -3 4 0 8 5 8 6 0 11 -8 12 -17 0
-15 2 -15 9 2 5 11 9 14 9 6 1 -10 4 -11 14 -2 8 6 17 8 21 4 12 -12 38 -12
33 1 -3 6 3 12 13 12 10 0 16 -5 13 -11 -3 -5 0 -4 8 3 16 15 33 16 23 0 -5
-7 -3 -8 5 -4 7 5 10 15 6 25 -5 12 -3 13 6 4 9 -9 15 -8 26 3 8 8 18 12 21
10 4 -2 16 6 27 17 11 11 13 17 5 12 -8 -4 -1 5 15 19 22 19 25 24 10 20 -19
-6 -19 -5 1 13 15 12 21 29 20 51 -1 24 3 31 13 27 11 -4 11 -2 3 8 -7 8 -8
18 -4 22 4 5 1 4 -7 0 -11 -6 -13 -4 -8 8 3 10 2 17 -4 17 -6 0 -7 5 -4 11 9
14 -37 80 -52 74 -7 -2 -15 1 -19 7 -5 7 -2 8 7 3 10 -6 11 -5 4 3 -6 6 -22
13 -35 15 -14 2 -25 9 -25 15 0 20 -14 25 -32 11 -9 -8 -14 -9 -10 -3 4 7 0
15 -9 18 -8 3 -12 2 -9 -4 3 -6 -1 -7 -9 -4 -9 3 -16 10 -16 14 0 4 -13 7 -30
6 -25 -2 -27 0 -17 13 9 11 9 13 0 8 -6 -4 -15 -2 -19 4 -4 8 -9 7 -15 -2 -6
-11 -9 -10 -15 4 -3 9 -12 17 -20 17 -8 0 -14 5 -14 11 0 5 5 7 11 3 8 -4 8 0
0 15 -11 19 -8 25 12 22 4 0 7 5 7 12 0 9 15 14 46 15 30 2 43 -1 39 -9 -4 -5
-1 -10 6 -8 26 3 40 -1 35 -10 -3 -5 1 -11 9 -15 8 -3 15 -12 15 -20 0 -17 37
-18 59 -2 10 7 13 7 9 1 -4 -6 2 -11 12 -11 14 0 16 3 8 13 -8 11 -7 12 7 7
10 -4 21 -1 26 7 5 8 9 9 9 3 0 -6 6 -11 14 -11 8 0 14 5 13 11 -1 6 3 10 10
9 7 -2 10 4 7 12 -4 8 -11 12 -16 9 -6 -4 -8 2 -6 12 2 10 -5 27 -15 37 -10
10 -15 22 -12 28 4 5 1 8 -7 7 -7 -2 -12 3 -10 10 1 8 -2 11 -8 7 -6 -3 -17 1
-26 10 -9 9 -21 14 -28 12 -6 -2 -17 3 -24 12 -11 13 -12 13 -7 1 4 -9 1 -8
-8 3 -10 12 -17 15 -22 7 -5 -8 -11 -8 -21 1 -11 9 -18 8 -31 -2 -9 -8 -14 -9
-10 -3 4 7 0 15 -9 18 -22 9 -26 8 -18 -5 4 -8 0 -8 -15 0 -14 8 -21 8 -21 1
0 -5 -4 -10 -10 -10 -5 0 -7 7 -4 15 4 8 4 15 1 15 -3 0 -9 -9 -12 -21z"/>
<path d="M2742 1942 c-7 -2 -12 -8 -12 -14 0 -6 6 -6 15 2 9 7 15 8 15 2 0
-12 -26 -23 -34 -14 -10 9 -46 10 -46 0 0 -5 -4 -6 -10 -3 -5 3 -10 1 -10 -5
0 -6 -4 -9 -9 -6 -5 3 -22 -1 -37 -9 -16 -8 -24 -15 -19 -15 6 -1 -3 -8 -18
-16 -18 -10 -26 -21 -23 -30 3 -7 0 -13 -6 -11 -12 2 -15 -4 -17 -49 0 -14 -5
-23 -9 -20 -4 2 -8 -6 -8 -20 0 -18 4 -23 16 -19 9 3 8 0 -4 -10 -16 -12 -17
-15 -4 -15 11 0 15 -6 11 -20 -3 -12 0 -20 6 -20 7 0 9 -4 6 -10 -3 -5 1 -10
9 -10 9 0 22 -10 30 -23 8 -12 30 -30 48 -40 23 -13 27 -14 14 -3 -11 9 -15
16 -9 16 6 0 16 -7 23 -15 7 -8 19 -15 27 -15 8 0 12 -4 9 -9 -3 -5 0 -9 7 -8
41 1 57 -4 57 -20 0 -14 2 -15 9 -4 7 11 9 11 14 0 4 -10 6 -10 6 -1 1 17 21
15 21 -3 0 -8 9 -15 20 -15 11 0 20 -7 20 -16 0 -9 5 -12 12 -8 8 5 9 0 6 -14
-4 -13 -1 -22 5 -22 8 0 9 -3 1 -8 -6 -4 -14 -16 -17 -26 -4 -10 -10 -16 -14
-13 -3 4 -13 1 -21 -6 -13 -10 -14 -9 -7 3 8 13 7 13 -8 1 -13 -10 -17 -10
-17 -1 0 7 -7 10 -15 6 -20 -7 -65 14 -65 31 0 9 -5 11 -12 7 -8 -5 -7 0 2 11
9 11 10 16 3 11 -11 -6 -18 9 -15 35 1 9 -32 7 -45 -4 -9 -6 -13 -6 -13 2 0 8
-6 7 -16 -3 -17 -18 -28 -21 -19 -7 3 5 0 13 -7 17 -7 4 -10 4 -6 -1 16 -17
-12 -34 -42 -25 -19 6 -32 5 -36 -2 -5 -7 -2 -8 6 -3 10 6 12 4 6 -11 -14 -35
-13 -49 6 -62 10 -7 16 -17 13 -22 -3 -5 1 -15 9 -23 8 -8 12 -18 8 -22 -4 -4
-2 -6 3 -5 20 4 35 0 35 -11 0 -5 -4 -7 -10 -4 -6 3 -7 -1 -3 -10 5 -13 7 -14
14 -3 6 9 11 10 17 2 4 -6 15 -10 25 -8 14 2 16 -1 7 -11 -9 -11 -7 -12 9 -8
13 3 21 1 21 -6 0 -7 5 -9 13 -4 16 10 60 4 70 -11 5 -8 10 -7 17 4 6 10 10
11 10 3 0 -7 5 -13 11 -13 5 0 8 4 5 8 -2 4 4 9 15 9 18 2 19 0 8 -15 -8 -9
-2 -7 13 6 17 15 28 20 33 13 3 -6 12 -8 18 -4 7 4 14 8 17 9 40 7 68 20 83
38 10 11 15 15 11 7 -5 -9 -3 -12 5 -7 6 4 9 12 6 17 -4 5 5 20 19 34 14 14
20 25 14 25 -7 0 -3 7 8 16 10 8 15 13 9 11 -6 -3 -9 19 -8 59 1 35 -3 66 -8
69 -5 4 -6 12 -2 18 4 8 1 7 -9 -1 -14 -11 -16 -11 -14 0 1 7 6 19 10 27 6 10
5 12 -2 7 -14 -8 -55 17 -45 27 3 4 -6 7 -21 7 -16 0 -25 4 -21 10 3 6 -1 10
-9 10 -9 0 -31 9 -50 19 -25 14 -37 16 -45 8 -8 -8 -11 -8 -11 1 0 7 -11 12
-25 12 -14 0 -25 5 -25 10 0 6 -9 10 -20 10 -11 0 -20 7 -20 16 0 8 -4 12 -10
9 -18 -11 -10 35 9 54 11 11 16 23 13 28 -4 4 3 -1 16 -12 16 -13 21 -14 17
-4 -4 10 1 15 14 15 11 0 17 -4 14 -9 -3 -5 4 -6 16 -2 16 5 25 -1 40 -26 11
-18 17 -37 14 -42 -3 -6 -1 -7 5 -3 7 4 12 2 12 -5 0 -9 4 -9 15 1 8 6 19 9
26 5 6 -4 15 -2 19 6 7 10 11 10 24 -1 14 -11 16 -11 11 2 -5 12 0 15 19 13
14 -2 26 1 26 6 0 6 4 8 9 4 5 -3 8 9 7 26 -1 17 -9 35 -17 40 -8 5 -10 9 -6
9 4 0 2 6 -5 14 -7 8 -16 12 -19 10 -8 -4 -23 27 -20 40 1 5 -5 6 -13 3 -8 -3
-17 1 -20 9 -3 9 -11 12 -16 9 -6 -4 -18 -1 -27 7 -14 11 -16 11 -9 -2 4 -8 1
-7 -7 3 -10 12 -17 15 -22 7 -5 -8 -10 -8 -20 0 -8 7 -19 9 -25 5 -6 -3 -23 0
-38 8 -15 7 -33 12 -40 9z"/>
<path d="M3455 1939 c5 -13 -2 -15 -40 -13 -27 2 -45 -1 -45 -8 0 -6 -7 -5
-17 3 -14 12 -16 12 -8 0 6 -11 4 -13 -7 -8 -9 3 -25 -1 -37 -9 -12 -8 -25
-13 -30 -10 -5 3 -11 -1 -15 -9 -3 -8 -12 -15 -20 -15 -9 0 -20 -9 -26 -21 -7
-12 -18 -18 -26 -15 -8 3 -13 2 -9 -3 3 -5 -1 -16 -9 -24 -8 -8 -12 -17 -9
-21 4 -3 1 -6 -5 -6 -7 0 -12 -5 -12 -11 0 -7 -8 -18 -17 -25 -12 -9 -14 -13
-5 -14 7 0 10 -5 7 -10 -4 -6 -12 -7 -18 -3 -7 4 -6 0 2 -10 9 -11 9 -17 2
-17 -6 0 -11 -10 -11 -22 0 -13 -1 -43 -3 -68 -3 -25 0 -51 6 -57 6 -9 5 -13
-4 -13 -10 0 -10 -3 -1 -12 8 -8 8 -15 1 -24 -7 -8 -6 -14 2 -20 8 -5 9 -3 4
6 -5 9 -4 11 4 6 9 -6 9 -11 0 -22 -10 -12 -10 -15 2 -12 9 2 14 -5 13 -19 -1
-14 4 -23 14 -23 12 0 12 -2 1 -17 -9 -10 -9 -14 -2 -10 7 5 18 -3 27 -20 8
-15 15 -25 16 -20 0 11 40 -31 40 -43 0 -7 8 -6 23 1 21 12 21 11 7 -7 -8 -10
-10 -16 -6 -12 5 4 15 3 22 -3 8 -6 20 -9 29 -5 8 3 14 0 12 -6 -2 -12 4 -15
49 -17 17 -1 23 -5 19 -13 -4 -7 1 -4 9 6 16 20 16 20 16 0 0 -16 2 -17 10 -4
6 10 10 11 10 3 0 -7 5 -13 11 -13 5 0 7 5 3 11 -4 7 -1 10 7 7 8 -3 13 -11
11 -18 -2 -10 1 -11 10 -3 7 6 24 9 36 8 13 -1 26 4 29 12 3 7 9 10 14 7 6 -3
17 0 26 8 12 9 15 9 9 1 -10 -17 4 -16 28 2 10 8 23 12 29 8 6 -3 7 -1 3 5 -4
7 -1 12 9 12 9 0 30 14 47 30 16 17 35 27 41 23 7 -3 9 -2 4 2 -4 5 1 18 10
29 17 20 17 20 1 7 -11 -8 -18 -9 -18 -3 0 6 9 14 21 17 15 5 20 13 17 30 -4
16 -1 22 8 18 9 -3 12 2 9 16 -2 12 0 21 6 21 5 0 9 5 9 11 0 5 -6 7 -12 4 -7
-4 -4 1 7 10 17 14 18 17 5 25 -13 8 -13 10 0 10 10 0 11 3 3 11 -12 12 -6 42
6 35 3 -2 6 7 6 20 0 13 -5 22 -11 20 -6 -2 -11 2 -11 10 0 7 3 11 7 9 4 -2 7
2 7 10 0 8 -5 11 -10 8 -6 -4 -8 4 -5 20 3 14 2 26 -1 25 -19 -2 -24 4 -11 12
10 6 11 10 3 10 -7 0 -13 9 -13 20 0 11 -6 20 -14 20 -10 0 -13 7 -11 20 2 11
0 18 -6 15 -5 -4 -9 -1 -9 5 0 16 -23 37 -46 42 -11 2 -18 11 -18 21 2 15 -1
16 -14 5 -13 -11 -15 -10 -10 3 5 13 0 16 -23 14 -18 -2 -40 6 -56 19 -15 11
-23 14 -18 6 8 -13 6 -13 -8 -1 -14 11 -17 11 -17 0 0 -12 -2 -12 -9 0 -5 7
-15 11 -22 9 -8 -3 -20 2 -27 11 -11 15 -12 15 -7 0z m33 -172 c7 3 21 -2 30
-10 9 -8 25 -13 35 -12 15 3 16 1 6 -11 -10 -12 -9 -13 5 -8 9 3 16 1 16 -6 0
-6 4 -8 10 -5 6 4 7 -1 3 -11 -4 -10 -2 -15 3 -11 5 3 15 -6 21 -20 10 -20 9
-24 -2 -19 -9 3 -12 0 -8 -9 3 -8 9 -13 13 -10 4 3 10 -11 12 -30 3 -26 0 -35
-12 -36 -11 -1 -10 -3 3 -6 18 -5 18 -5 0 -20 -10 -8 -13 -12 -8 -9 6 2 11 -4
11 -14 0 -15 -3 -17 -15 -7 -11 9 -13 9 -8 0 10 -16 -3 -44 -17 -36 -6 4 -4
-2 4 -12 8 -10 10 -16 4 -12 -7 4 -15 0 -18 -9 -3 -9 -11 -12 -18 -8 -7 5 -9
2 -5 -9 4 -11 1 -15 -14 -12 -10 2 -19 0 -19 -5 0 -5 -7 -7 -15 -4 -8 4 -23 0
-32 -7 -14 -12 -16 -12 -8 1 6 12 5 13 -6 3 -15 -14 -33 -18 -25 -5 3 5 -7 9
-22 10 -42 1 -61 7 -75 22 -9 11 -8 11 7 0 14 -11 18 -11 12 -2 -4 7 -19 18
-33 23 -14 5 -23 12 -20 16 4 3 -1 12 -11 20 -9 8 -11 12 -5 8 9 -4 11 -1 7 9
-3 9 -10 14 -14 11 -13 -8 -8 39 5 47 6 5 5 8 -3 8 -15 0 -13 70 3 70 5 0 3 5
-5 10 -9 6 -10 10 -3 10 7 0 17 10 24 21 7 15 8 19 0 15 -7 -4 -9 -1 -5 8 3 9
10 14 14 13 5 -1 16 7 25 18 9 11 14 13 10 5 -4 -8 1 -6 9 4 9 11 16 16 16 12
0 -5 6 -4 13 1 6 6 22 9 35 8 12 -1 22 2 22 7 0 5 8 5 18 0 9 -5 23 -7 30 -5z
m12 -513 c0 -8 -19 -13 -24 -6 -3 5 1 9 9 9 8 0 15 -2 15 -3z"/>
<path d="M512 1906 c-12 -14 -13 -17 -2 -11 12 7 13 6 3 -7 -7 -8 -10 -18 -6
-21 3 -4 -2 -9 -11 -13 -9 -3 -13 -10 -10 -15 3 -5 -1 -9 -8 -9 -9 0 -9 -3 2
-10 9 -6 11 -10 3 -10 -7 0 -10 -6 -7 -14 3 -8 0 -17 -7 -22 -8 -5 -10 -3 -4
6 5 9 4 11 -4 6 -9 -6 -9 -11 0 -22 6 -8 9 -15 5 -15 -3 -1 -10 -2 -15 -3 -5
0 -13 -5 -18 -10 -5 -5 -3 -6 5 -2 14 8 17 -10 2 -19 -5 -3 -10 -15 -10 -26 0
-11 -3 -18 -8 -15 -4 2 -8 -10 -9 -27 0 -17 -6 -33 -12 -35 -6 -2 -11 -12 -11
-22 0 -10 -4 -21 -9 -24 -5 -3 -7 -16 -3 -28 4 -16 2 -19 -9 -13 -12 8 -12 6
0 -9 12 -15 12 -17 0 -14 -9 2 -14 -6 -13 -24 0 -29 -10 -37 -19 -15 -3 6 -3
-3 0 -22 5 -28 3 -32 -8 -26 -12 8 -12 6 0 -9 12 -15 12 -17 0 -14 -8 2 -13
-3 -11 -9 1 -7 -2 -13 -8 -13 -5 0 -10 -5 -10 -11 0 -5 6 -7 13 -3 8 5 8 3 -2
-9 -7 -9 -17 -14 -22 -12 -4 3 -6 -6 -3 -21 3 -14 1 -23 -4 -21 -4 3 -8 -3 -8
-13 0 -10 8 -23 18 -29 14 -9 18 -8 18 1 0 9 3 8 10 -2 5 -8 10 -10 10 -4 0 7
17 8 50 4 28 -4 50 -2 50 2 0 5 4 7 9 3 12 -7 34 32 26 45 -3 6 2 10 12 10 10
0 14 3 8 8 -7 5 -5 19 7 42 16 33 17 34 19 10 1 -17 3 -20 6 -7 2 9 9 17 14
17 6 0 7 -5 3 -12 -4 -7 -3 -8 5 -4 6 4 25 9 42 11 28 4 30 3 18 -13 -12 -15
-12 -15 7 1 24 20 38 22 28 5 -6 -10 -4 -10 7 0 7 6 17 12 22 12 4 0 5 -6 1
-12 -6 -10 -4 -10 7 0 7 6 20 12 28 12 11 0 10 -4 -5 -16 -18 -15 -17 -15 7
-1 32 19 69 12 69 -14 0 -11 5 -19 11 -19 8 0 7 -6 -2 -17 -10 -11 -10 -14 -1
-9 11 6 17 -5 13 -26 0 -5 3 -8 9 -8 5 0 10 -8 11 -17 0 -12 2 -13 6 -5 4 10
9 9 20 -5 10 -13 13 -14 10 -3 -3 11 4 15 33 15 30 0 36 -3 28 -13 -8 -9 -7
-11 6 -6 9 3 16 10 16 14 0 4 12 5 26 2 21 -4 25 -2 19 8 -6 10 -4 12 10 6 17
-6 18 -5 3 11 -23 27 -33 47 -20 39 8 -5 10 -2 6 8 -3 9 -11 13 -18 9 -6 -4
-4 2 4 12 13 17 13 18 -1 13 -13 -5 -16 -2 -11 14 3 13 1 19 -5 15 -14 -9 -23
16 -16 44 4 12 2 20 -3 17 -5 -3 -16 1 -24 10 -13 14 -12 15 4 9 15 -6 17 -5
8 6 -7 8 -9 17 -5 20 3 4 1 7 -5 7 -7 0 -12 9 -12 21 0 11 -4 18 -8 15 -5 -3
-9 1 -9 9 0 8 5 15 11 15 7 0 7 3 -1 8 -6 4 -13 14 -15 22 -2 8 -9 21 -16 29
-10 10 -10 16 -2 21 8 5 6 9 -5 14 -12 4 -16 14 -13 31 3 13 2 24 -1 23 -19
-2 -22 4 -10 19 8 9 9 14 3 10 -7 -4 -18 1 -25 10 -12 14 -12 16 1 8 12 -6 13
-5 3 6 -7 7 -13 21 -13 31 0 10 -4 18 -8 18 -5 0 -9 6 -10 13 -4 64 -35 103
-79 98 -7 0 -20 -1 -28 -1 -8 0 -22 0 -30 0 -8 0 -21 0 -27 0 -7 -1 -28 1 -46
3 -23 2 -37 -3 -50 -17z m125 -198 c-11 -7 -2 -12 16 -9 4 0 7 -10 7 -24 0
-14 6 -25 13 -25 9 0 8 -3 -2 -9 -11 -7 -10 -10 3 -18 10 -6 18 -23 18 -41 1
-17 5 -29 10 -26 4 3 8 -6 8 -20 0 -14 -5 -26 -11 -26 -5 0 -7 6 -3 13 5 7 1
7 -10 -2 -15 -13 -19 -13 -27 0 -5 8 -9 9 -9 3 0 -15 -50 -15 -50 0 0 6 -5 4
-10 -4 -8 -13 -11 -13 -19 -1 -5 8 -14 10 -22 5 -11 -6 -12 -5 -2 8 7 8 9 19
5 23 -4 5 -1 5 6 1 8 -5 13 -3 11 5 -5 37 1 51 19 44 13 -5 14 -3 5 6 -12 12
-6 39 11 51 7 5 6 8 -4 8 -13 1 -13 2 0 13 8 7 15 18 16 25 4 48 3 47 18 26
11 -14 11 -21 3 -26z"/>
<path d="M1596 1922 c-4 -7 -12 -10 -17 -7 -5 4 -9 -1 -9 -9 0 -9 5 -16 12
-16 6 0 8 -3 5 -7 -4 -3 -1 -13 6 -21 9 -13 9 -14 0 -8 -9 5 -11 2 -7 -8 3 -9
11 -13 18 -9 7 4 6 1 -2 -9 -10 -12 -9 -18 3 -28 9 -7 14 -19 11 -26 -3 -7 2
-15 9 -18 8 -3 12 -14 10 -26 -2 -11 0 -20 5 -20 4 0 11 -7 14 -16 3 -8 2 -12
-4 -9 -6 3 -10 1 -10 -4 0 -6 6 -11 14 -11 10 0 13 -7 11 -21 -3 -16 0 -19 12
-15 13 5 14 4 3 -9 -8 -10 -9 -15 -1 -15 6 0 11 -9 11 -21 0 -12 4 -17 11 -13
7 4 7 -1 -1 -16 -8 -15 -8 -20 -1 -16 10 6 15 -6 12 -26 0 -5 4 -8 10 -8 5 0
7 -4 4 -10 -3 -5 0 -10 7 -10 9 0 9 -3 -2 -10 -11 -7 -11 -10 -2 -10 7 0 10
-4 7 -10 -3 -5 -2 -10 4 -10 5 0 8 -9 6 -20 -2 -11 0 -18 6 -15 5 4 10 0 11
-7 0 -7 2 -17 3 -23 2 -5 3 -16 4 -23 0 -7 6 -10 12 -6 7 4 7 -1 -1 -16 -8
-15 -8 -20 -1 -16 10 7 17 -22 11 -49 -1 -5 2 -7 6 -3 4 4 12 0 19 -9 11 -14
75 -26 75 -13 0 8 107 3 121 -5 8 -5 10 -4 5 3 -4 7 -3 12 3 12 5 0 8 9 6 20
-2 11 0 18 5 15 5 -3 11 -1 15 5 3 5 0 10 -7 10 -10 0 -10 2 1 9 7 5 10 14 7
20 -4 6 0 11 11 11 14 0 15 2 5 9 -11 7 -11 9 2 14 9 4 13 14 11 26 -2 11 0
23 6 26 5 4 9 1 9 -6 0 -7 3 -9 6 -6 4 4 1 13 -5 21 -9 11 -9 16 1 23 7 4 13
17 13 28 0 11 5 19 11 18 8 -1 11 11 10 33 -1 22 3 33 10 30 7 -3 11 6 9 25
-1 16 1 26 6 24 8 -5 16 14 24 57 3 12 13 34 24 49 14 19 16 30 9 44 -8 13 -7
16 1 11 6 -4 11 -2 11 4 0 6 4 9 9 6 5 -4 7 3 4 15 -6 20 13 67 32 81 6 5 5 8
-3 8 -7 0 -11 4 -7 9 6 10 -33 27 -50 22 -23 -7 -51 -7 -67 1 -12 6 -18 5 -18
-3 0 -8 -4 -8 -15 1 -11 9 -15 9 -15 1 0 -7 -4 -10 -9 -6 -5 3 -13 0 -17 -6
-4 -7 -3 -9 3 -6 7 4 10 -3 9 -17 0 -14 -6 -22 -13 -19 -11 5 -19 -30 -14 -60
1 -5 -3 -6 -9 -2 -5 3 -11 -1 -11 -9 -2 -25 -4 -30 -12 -43 -5 -8 -3 -13 5
-13 7 0 3 -7 -8 -14 -14 -10 -20 -25 -19 -45 1 -22 -3 -31 -14 -31 -14 0 -14
-2 -1 -10 14 -9 7 -15 -14 -11 -5 1 -4 -5 4 -13 9 -12 9 -16 1 -16 -7 0 -9 -4
-6 -10 3 -5 0 -10 -7 -10 -10 0 -10 -2 1 -9 11 -7 10 -11 -5 -20 -13 -7 -14
-10 -5 -11 15 0 -33 -50 -48 -50 -5 0 -8 18 -7 40 2 34 0 38 -13 27 -12 -10
-14 -9 -9 5 4 9 4 19 0 23 -7 7 -8 12 -11 41 0 8 -5 13 -9 10 -5 -3 -8 5 -7
17 1 12 -3 25 -9 29 -7 5 -6 8 4 8 12 0 12 2 2 9 -7 4 -14 17 -15 29 0 12 -3
19 -6 17 -2 -3 -10 3 -17 13 -9 13 -10 20 -1 31 10 12 9 13 -2 6 -11 -6 -13
-2 -9 20 5 21 1 29 -14 33 -15 4 -17 7 -6 13 8 6 9 9 1 9 -6 0 -9 9 -6 20 4
15 0 20 -16 20 -14 0 -20 4 -15 11 4 8 0 8 -15 0 -11 -7 -21 -8 -21 -3 0 10
-30 9 -48 -2 -7 -4 -12 -2 -12 5 0 9 -3 9 -14 0 -11 -9 -15 -9 -18 1 -3 9 -6
9 -12 0z m353 -426 c-2 -2 -15 -9 -29 -15 -24 -11 -24 -11 -6 3 16 13 49 24
35 12z"/>
<path d="M3902 1923 c-6 -3 -9 -10 -5 -16 4 -7 0 -8 -13 -4 -18 7 -18 7 0 -8
11 -8 15 -15 10 -15 -11 0 -10 -63 1 -80 3 -6 2 -10 -3 -10 -5 0 -7 -19 -5
-42 3 -27 0 -44 -9 -49 -9 -6 -9 -9 -1 -9 8 0 12 -19 11 -58 -1 -32 2 -64 6
-70 4 -7 3 -12 -2 -12 -5 0 -7 -19 -5 -42 3 -27 0 -44 -9 -49 -9 -6 -9 -9 -1
-9 8 0 12 -19 11 -58 -1 -32 2 -64 6 -70 4 -7 3 -12 -2 -12 -17 0 -5 -41 16
-56 12 -8 22 -11 22 -6 0 5 12 7 28 6 89 -10 124 -11 116 -5 -10 7 -14 61 -4
61 3 0 3 27 0 60 -4 38 -2 60 5 60 5 0 3 5 -5 10 -9 6 -10 10 -3 10 8 0 9 9 3
29 l-8 28 55 -1 c30 0 57 3 60 8 3 4 9 2 14 -5 8 -12 11 -11 19 1 5 8 10 10
10 4 0 -12 57 -6 66 7 3 5 1 9 -4 9 -4 0 -8 14 -8 30 0 17 4 30 8 30 5 0 6 6
1 13 -9 14 -10 18 -12 50 -1 18 -3 19 -11 7 -5 -8 -10 -10 -10 -4 0 7 -11 9
-27 7 -16 -2 -39 -4 -53 -3 -40 3 -44 3 -55 0 -27 -6 -43 2 -47 25 -3 14 -2
25 2 25 4 0 5 11 3 24 -5 26 15 38 52 32 11 -2 27 0 36 5 10 5 21 3 27 -3 9
-9 12 -8 12 3 0 8 3 10 8 4 10 -14 75 -13 87 1 6 6 20 14 33 17 18 4 21 3 12
-8 -8 -9 -7 -14 5 -19 8 -3 15 0 15 7 0 7 3 8 8 2 9 -13 72 -13 72 -1 0 5 10
1 22 -10 12 -10 18 -13 13 -5 -6 10 -4 12 4 7 7 -5 10 -14 7 -21 -2 -7 0 -17
6 -23 6 -6 6 -12 -1 -16 -6 -4 -11 -12 -11 -17 0 -6 5 -7 10 -4 17 10 11 -7
-7 -22 -17 -14 -17 -14 2 -8 16 5 18 4 8 -6 -15 -15 -17 -33 -3 -24 17 10 11
-7 -7 -22 -17 -14 -17 -14 2 -8 16 5 18 4 8 -6 -15 -15 -17 -33 -3 -24 17 10
11 -7 -7 -22 -17 -14 -17 -14 2 -8 16 5 18 4 8 -6 -15 -15 -17 -33 -3 -24 17
10 11 -7 -7 -22 -17 -14 -17 -14 2 -8 16 5 18 4 8 -6 -15 -15 -17 -33 -3 -24
17 10 11 -7 -7 -22 -17 -14 -17 -14 2 -8 16 5 18 4 8 -6 -15 -15 -17 -33 -3
-24 17 10 11 -7 -7 -22 -17 -14 -17 -14 0 -9 16 5 17 4 3 -15 -16 -23 -11 -53
8 -42 8 4 8 2 -1 -7 -12 -13 -6 -43 7 -35 5 3 16 -2 24 -11 15 -14 16 -14 16
3 0 10 4 14 8 8 4 -6 32 -8 67 -4 33 3 54 6 46 7 -10 2 -11 5 -2 16 8 10 9 16
1 21 -6 3 -8 11 -4 16 11 19 12 79 1 79 -8 0 -7 4 2 9 9 6 10 11 2 15 -8 5 -8
13 0 28 8 15 8 22 -1 28 -9 6 -9 9 1 13 12 5 12 6 0 6 -11 1 -11 4 0 17 10 13
10 17 0 24 -11 6 -11 9 0 13 12 5 12 6 0 6 -11 1 -11 4 0 17 10 13 10 17 0 24
-9 5 -10 13 -5 21 11 18 11 38 2 67 -5 14 -4 21 1 17 6 -3 9 4 8 15 -1 11 -5
20 -9 20 -5 0 -3 9 4 21 9 13 21 19 35 16 12 -2 24 1 27 7 3 7 5 7 5 0 1 -14
82 -7 96 8 7 7 7 9 0 5 -7 -3 -11 8 -11 29 0 24 4 33 12 30 8 -3 11 1 7 10 -3
7 -9 14 -15 14 -5 0 -7 8 -3 19 3 10 -1 24 -10 31 -12 10 -15 10 -15 0 0 -10
-3 -10 -15 0 -12 10 -15 10 -15 0 0 -10 -3 -10 -15 0 -11 9 -15 9 -15 1 0 -7
-5 -9 -12 -5 -19 12 -48 12 -48 1 0 -5 -7 -4 -15 3 -12 10 -15 10 -15 0 0 -10
-3 -10 -15 0 -11 9 -15 9 -15 1 0 -7 -5 -9 -12 -5 -19 12 -48 12 -48 1 0 -5
-7 -4 -15 3 -11 9 -15 9 -15 1 0 -7 -5 -9 -12 -5 -17 11 -58 11 -58 1 0 -5 -6
-4 -14 2 -10 9 -16 9 -21 1 -5 -8 -10 -8 -20 0 -9 8 -15 8 -20 0 -3 -5 -11
-10 -16 -10 -6 0 -7 5 -3 11 4 8 1 8 -12 2 -17 -8 -39 -10 -46 -3 -9 6 -48 5
-48 -2 0 -5 -9 -4 -20 2 -15 8 -20 8 -20 -1 0 -8 -4 -9 -13 0 -10 8 -17 7 -25
-1 -9 -9 -12 -9 -12 0 0 9 -5 10 -18 3 -11 -6 -24 -6 -35 0 -11 7 -17 6 -17
-1 0 -8 -6 -8 -20 0 -15 8 -20 8 -20 -1 0 -9 -3 -9 -14 0 -10 8 -16 9 -21 1
-4 -7 -12 -7 -26 0 -14 8 -19 7 -19 -1 0 -9 -3 -9 -14 0 -11 9 -16 9 -21 0 -5
-7 -10 -7 -14 -2 -3 6 -12 8 -19 6z m426 -37 c-15 -29 -15 -30 -15 -3 0 13 5
24 13 24 10 0 10 -5 2 -21z m17 -26 c-10 -16 -45 -32 -45 -20 0 5 7 10 15 10
8 0 15 5 15 10 0 6 5 10 11 10 5 0 7 -4 4 -10z m-21 -48 c3 -5 -1 -9 -9 -9 -8
0 -12 4 -9 9 3 4 7 8 9 8 2 0 6 -4 9 -8z m176 -492 c0 -5 -5 -10 -11 -10 -5 0
-7 5 -4 10 3 6 8 10 11 10 2 0 4 -4 4 -10z"/>
<path d="M2510 1364 c0 -8 5 -12 10 -9 6 4 8 11 5 16 -9 14 -15 11 -15 -7z"/>
</g>
</svg>
