
<svg version="1.1" x="0px" y="0px" viewBox="0 0 256 256" enable-background="new 0 255, 255, 255" xml:space="preserve">
<g><g><g><path stroke-width="2" fill-opacity="0" stroke="#000000"  d="M59.3,10.2c-0.4,0.1-2.3,0.4-4.2,0.7c-17.7,2.9-33.9,16-40.5,32.9c-7.8,19.7-3.7,41.9,10.7,57.3c8.8,9.4,21.2,15.5,34.5,16.8c10.6,1.1,22.2-1.5,31.9-7c3.3-1.9,4.3-2.3,4.6-1.8c1.2,1.8,3.6,7,4.5,9.8c1.2,4.1,1.4,11.9,0.2,16.1c-0.7,2.8-3.7,9.5-5,11.1c-0.6,0.9-0.7,0.9-2.9-0.6c-15.5-9.9-35.7-11.1-52.6-3c-5.3,2.5-10.2,6-14.7,10.6c-19,19-21.2,49-5.3,70.3c11.3,15.1,29.4,23.2,48.1,21.6c26.2-2.3,46.5-22.5,49.3-48.8c1.1-10.6-1.5-22.4-7-31.8c-1.2-2.2-2.3-4.2-2.3-4.3c0-0.5,7.1-3.8,10.4-4.9c4.1-1.3,11.4-1.4,15.9-0.3c3,0.7,9.5,3.7,11.3,5c0.9,0.6,0.9,0.7-0.6,2.9c-0.8,1.2-2.3,4.1-3.3,6.2c-12.3,26.2-1.8,57.4,23.9,70.7c17.7,9.1,38,8.2,54.5-2.6c14-9.1,22.9-24,24.3-40.5c2.5-29.7-18.9-55.4-48.8-58.6c-10.8-1.2-23,1.6-32.7,7.4c-1.8,1-3.3,1.8-3.4,1.8c-0.5,0-3.9-7.1-4.9-10.4c-1.3-4.1-1.4-11.4-0.3-15.9c0.8-3.2,4.2-10.8,5.2-11.6c0.4-0.4,1.2-0.2,2.8,0.9c9.1,5.8,20.5,8.8,31.5,8.3c14.1-0.7,25.9-5.9,35.7-15.8c14.7-14.8,19.6-36,12.9-55.9c-5.3-15.8-19.4-29.3-35.4-33.9c-6.1-1.8-9.3-2.2-15.8-2.2c-27.9,0-50.6,20.6-53.7,48.7c-1.2,10.5,1.4,22.7,7,32.3c1.2,2.2,2.3,4.1,2.3,4.2c0,0.5-7.3,3.9-10.4,4.8c-4.1,1.2-11.9,1.4-16.1,0.2c-2.8-0.7-9.5-3.7-11.1-5c-0.9-0.6-0.9-0.7,0.6-2.9c8.6-13.5,10.7-31.3,5.4-46.7c-6.5-19-23.2-32.8-43.2-35.9C68.8,10,61.3,9.8,59.3,10.2z M76.9,16.1c4.8,1.2,10.6,3.8,14.7,6.4c11.6,7.5,20.1,20.6,22.1,34.5c0.8,5.6,0.3,13.9-1.2,19.6c-1.2,4.7-4.8,12.7-6.9,15.2l-1.1,1.3l-5.5-4.2c-6.1-4.6-11.3-9-19.1-16.3l-5.3-4.9v-4l0-4l3.2-2.6c9.6-7.7,15.9-15.7,17.7-22c0.6-2.3,0-4-1.3-4c-3.9,0-13.2,8.4-20,18.1c-3.1,4.5-4.3,5.8-4.8,5.6c-7.1-3.1-14.8,1.4-14.9,8.7c0,1.3,0.1,2.8,0.3,3.4c0.3,0.8-0.4,1.6-4.2,4.7C40.5,80,33.5,89.5,33.5,94.8c0,2.4,1.4,2.6,4.8,1c4.8-2.4,11.3-9,17.2-17.6c3.9-5.7,3.3-5.3,6.1-4.4c1.5,0.4,3.1,0.6,4.3,0.4l1.9-0.3l6.5,7.1c6.5,7.1,13.5,15.5,17.1,20.7l1.9,2.8l-2.2,1.4c-19.9,12.8-46.9,9.2-62.9-8.2c-17.8-19.4-17.4-49,0.7-67.8c6-6.2,12-10,20.1-12.7c6.4-2.1,9.5-2.6,17.1-2.4C71,14.9,73.5,15.2,76.9,16.1z M197.2,15.5c19.1,2.2,35.2,14.9,41.5,32.9c6.9,19.6,0.6,41.9-15.6,54.8c-4.1,3.3-11.1,7.1-15.7,8.5c-8.8,2.8-19,3.1-27.9,0.8c-4.7-1.2-12.7-4.8-15.2-6.9l-1.3-1.1l4.2-5.5c4.6-6.1,9.4-11.8,16.5-19.3l4.8-5.1h4l4,0l2.6,3.2c7.8,9.7,15.7,16,22.2,17.7c5.8,1.6,4.7-3.7-2.4-11.4c-3.1-3.3-7.7-7.1-13.6-11.1c-2.3-1.6-4.2-2.9-4.2-3c0,0,0.3-0.9,0.7-1.9c1.8-5.1-0.5-10.4-5.7-13.1c-1.2-0.6-4.8-0.8-6.5-0.3c-1.1,0.3-1.5-0.1-5-4.2c-6.8-8.3-13.6-13.9-19.4-16.2c-4.6-1.8-6.6-1-5.6,2.2c1.5,4.6,8.4,11.9,17.2,18.1c2.9,2.1,5.5,4.1,5.8,4.4c0.3,0.4,0.3,1.2-0.2,2.9c-0.4,1.4-0.6,3-0.4,4.2l0.3,1.9l-7.1,6.5c-7.1,6.5-15.5,13.4-20.7,17.1l-2.8,1.9l-1.6-2.6c-3.8-5.9-6.3-13.3-7.2-21.2c-1.3-10.9,1.7-22.9,8.1-32.5c8.9-13.3,24.1-21.7,40.6-22.2C192.4,15,195,15.2,197.2,15.5z M76.6,143.4c4.7,1.2,12.8,4.9,15.1,6.8l1.3,1.1l-4.2,5.5c-4.6,6.1-9.3,11.7-16.5,19.4l-4.8,5.1h-4l-4,0l-2.6-3.2c-3.9-4.8-9.7-10.7-12.9-12.9c-5.3-3.8-10.4-5.8-12.3-4.8c-3.7,1.9,5.1,12.9,17.3,21.4c4.5,3.1,5.8,4.3,5.6,4.8c-2.4,5.4-0.5,11.3,4.6,13.8c2.2,1.1,5.5,1.4,7.6,0.8c0.7-0.2,1.6,0.6,4.7,4.3c8.4,10.1,17.8,17.1,23.2,17.1c2.4,0,2.6-1.4,1-4.8c-2.4-4.8-9-11.3-17.6-17.2c-5.7-3.9-5.2-3.2-4.4-6.3c0.4-1.5,0.6-3.4,0.4-4.4c-0.3-1.7-0.2-1.8,5.7-7.2c9.7-9,23.7-20.2,24.5-19.7c0.2,0.1,1.2,1.6,2.2,3.3c8.5,14.5,9.2,31.9,1.7,47c-14.6,30-54.5,36.9-78.5,13.8c-6.2-6-10.1-12-12.7-20.1c-2.1-6.4-2.8-11.3-2.4-17.9c1.1-23,17.8-42.1,40.6-46.4C60.7,141.5,70.9,141.9,76.6,143.4z M201.1,143.4c21.6,4.6,37.1,21.8,39.4,43.8c0.9,8.4-0.6,17.5-4.4,25.5c-2.5,5.3-5,9.1-9.1,13.4c-5.9,6.2-12.1,10.1-20.2,12.8c-23.1,7.7-48.4-2.6-59.4-24.2c-4.3-8.4-5.9-15.7-5.4-25.3c0.2-4.2,0.6-7.1,1.5-10.2c1.2-4.6,4.9-12.6,6.8-14.9l1.1-1.3l5.5,4.2c6.1,4.6,11.7,9.4,19.3,16.5l5.1,4.8v4l0,4l-3.2,2.6c-9.7,7.8-16,15.7-17.7,22.2c-2,7.5,7.3,3,16.2-7.7c1.6-1.9,4-5.1,5.4-7c4.1-6,3.7-5.6,5.8-4.8c1,0.4,2.7,0.6,3.7,0.6c2.5,0,6.3-1.8,7.8-3.8c1.3-1.7,2.7-5.8,2.3-6.9c-0.9-3.2-0.9-3.2,3.9-7.2c2.5-2.1,6-5.3,7.9-7.2c6.9-7.3,11.1-16.2,8.3-17.7c-3.2-1.7-12.6,6.3-20.3,17.2c-2.1,2.9-4.1,5.5-4.4,5.8c-0.4,0.3-1.2,0.3-2.8-0.2c-1.4-0.4-3-0.6-4.2-0.4l-1.9,0.3l-5.5-6c-7.1-7.7-11.6-13-16.3-19.3l-3.7-5.1l1.2-1.1c1.9-1.6,9.1-4.9,13-6.1C184.5,142.2,193.7,141.8,201.1,143.4z"/></g></g></g>
</svg>