<svg fill="none" height="619" viewBox="0 0 619 619" width="619" xmlns="http://www.w3.org/2000/svg" xmlns:xlink="http://www.w3.org/1999/xlink"><linearGradient id="a" gradientUnits="userSpaceOnUse" x1="13.929" x2="605.386" y1="605.265" y2="13.8068"><stop offset="0" stop-color="#623079"/><stop offset=".6784" stop-color="#8b44ac"/></linearGradient><clipPath id="b"><path d="m147.9 124.667h323.996v371.394h-323.996z"/></clipPath><path d="m539.777 619h3.711c38.715 0 70.522-28.997 74.976-66.508l.536-251.295c-4.401-167.094-141.26-301.197-309.445-301.197-170.963 0-309.555 138.568-309.555 309.5 0 169.103 135.642 306.578 304.077 309.5z" fill="url(#a)"/><g clip-path="url(#b)"><path d="m147.9 192.635 132.781-18.353v128.683h-132.781zm0 235.457 132.781 18.353v-127.087h-132.781zm147.389 20.311 176.607 24.445v-153.49h-176.607zm0-276.079v130.641h176.607v-155.086z" fill="#fff"/></g></svg>