<svg fill="none" height="619" viewBox="0 0 619 619" width="619" xmlns="http://www.w3.org/2000/svg" xmlns:xlink="http://www.w3.org/1999/xlink"><linearGradient id="a" gradientUnits="userSpaceOnUse" x1="13.929" x2="605.386" y1="605.265" y2="13.8068"><stop offset="0" stop-color="#623079"/><stop offset=".6784" stop-color="#8b44ac"/></linearGradient><clipPath id="b"><path d="m148 124h323.996v371.394h-323.996z"/></clipPath><path d="m539.777 619h3.711c38.715 0 70.522-28.997 74.976-66.508l.536-251.295c-4.401-167.094-141.26-301.197-309.445-301.197-170.963 0-309.555 138.568-309.555 309.5 0 169.103 135.642 306.578 304.077 309.5z" fill="url(#a)"/><g clip-path="url(#b)"><path d="m307.684 213.439c.723.363 1.302 1.233 2.169 1.233.796 0 2.025-.29 2.098-1.088.144-1.015-1.374-1.668-2.315-2.103-1.229-.508-2.82-.726-3.977-.073-.289.145-.579.508-.434.798.217.943 1.663.798 2.459 1.233zm-15.838 1.233c.867 0 1.446-.87 2.169-1.233.796-.435 2.242-.29 2.531-1.16.145-.291-.144-.653-.433-.798-1.158-.653-2.749-.436-3.978.072-.94.435-2.459 1.088-2.314 2.104.072.725 1.301 1.088 2.025 1.015zm159.9 202.236c-2.603-2.902-3.833-8.415-5.207-14.29-1.302-5.876-2.82-12.187-7.594-16.249-.94-.798-1.88-1.523-2.892-2.103-.941-.581-1.953-1.088-2.965-1.451 6.653-19.803 4.049-39.533-2.676-57.377-8.245-21.834-22.637-40.912-33.629-53.969-12.367-15.595-24.372-30.393-24.155-52.227.361-33.295 3.688-95.169-54.819-95.242-74.056-.145-55.542 75.004-56.338 98.071-1.229 16.974-4.628 30.321-16.272 46.932-13.669 16.321-32.906 42.652-42.018 70.144-4.339 12.984-6.364 26.186-4.484 38.663-4.701 4.207-8.245 10.663-12.005 14.653-3.038 3.119-7.449 4.279-12.295 6.02-4.845 1.741-10.125 4.352-13.379 10.518-1.519 2.829-2.025 5.876-2.025 8.995 0 2.829.434 5.73.868 8.559.868 5.876 1.808 11.389.578 15.088-3.76 10.446-4.267 17.699-1.591 22.995 2.748 5.295 8.245 7.616 14.537 8.922 12.511 2.611 29.506 1.958 42.886 9.067 14.319 7.544 28.856 10.228 40.427 7.544 8.389-1.886 15.26-6.964 18.731-14.653 9.04-.072 19.02-3.917 34.931-4.787 10.775-.871 24.299 3.844 39.848 2.974.434 1.668 1.013 3.337 1.808 4.86v.072c6.003 12.114 17.213 17.627 29.145 16.684 12.006-.943 24.662-7.979 34.931-20.238 9.836-11.896 26.036-16.829 36.811-23.357 5.352-3.264 9.691-7.326 10.053-13.274.289-5.949-3.182-12.55-11.21-21.544zm-141.965-229.582c7.088-16.104 24.734-15.814 31.821-.291 4.701 10.301 2.604 22.415-3.11 29.306-1.157-.581-4.267-1.886-9.112-3.555.795-.87 2.242-1.958 2.82-3.336 3.472-8.56-.144-19.586-6.581-19.803-5.279-.363-10.052 7.834-8.534 16.683-2.965-1.45-6.798-2.538-9.401-3.191-.723-5.005-.217-10.591 2.097-15.813zm-29.434-8.342c7.304 0 15.042 10.3 13.813 24.3-2.531.725-5.135 1.813-7.377 3.337.868-6.456-2.386-14.581-6.943-14.218-6.074.508-7.087 15.378-1.301 20.383.723.581 1.374-.145-4.267 3.99-11.282-10.591-7.594-37.792 6.075-37.792zm-9.836 44.03c4.484-3.337 9.836-7.254 10.197-7.616 3.399-3.192 9.764-10.301 20.178-10.301 5.134 0 11.282 1.669 18.731 6.456 4.556 2.974 8.172 3.192 16.344 6.746 6.075 2.539 9.908 7.036 7.594 13.202-1.881 5.15-7.955 10.446-16.417 13.129-8.028 2.612-14.319 11.606-27.626 10.809-2.821-.146-5.063-.726-6.943-1.524-5.786-2.539-8.823-7.544-14.464-10.88-6.22-3.482-9.547-7.544-10.631-11.099-1.013-3.554 0-6.528 3.037-8.922zm2.387 242.277c-1.953 25.46-31.749 24.953-54.458 13.056-21.623-11.461-49.611-4.715-55.325-15.885-1.735-3.41-1.735-9.213 1.881-19.15v-.146c1.735-5.512.433-11.606-.434-17.336-.868-5.658-1.302-10.881.65-14.508 2.532-4.86 6.148-6.601 10.704-8.196 7.449-2.684 8.534-2.467 14.175-7.182 3.977-4.134 6.87-9.357 10.342-13.056 3.688-3.99 7.232-5.876 12.8-5.006 5.858.871 10.921 4.933 15.838 11.606l14.175 25.824c6.871 14.435 31.17 35.108 29.652 49.979zm-1.013-18.788c-2.965-4.787-6.943-9.865-10.414-14.217 5.135 0 10.27-1.596 12.078-6.456 1.663-4.497 0-10.808-5.352-18.062-9.763-13.202-27.699-23.575-27.699-23.575-9.763-6.093-15.26-13.564-17.791-21.689-2.531-8.124-2.169-16.901-.217-25.533 3.761-16.611 13.452-32.787 19.671-42.942 1.664-1.233.579 2.321-6.291 15.088-6.148 11.678-17.647 38.662-1.881 59.771.434-15.016 3.978-30.321 9.98-44.611 8.679-19.875 26.976-54.331 28.422-81.75.796.58 3.327 2.321 4.484 2.974 3.327 1.958 5.858 4.86 9.113 7.471 8.967 7.254 20.611 6.674 30.664.871 4.483-2.539 8.099-5.441 11.499-6.529 7.159-2.248 12.873-6.238 16.127-10.88 5.569 22.051 18.586 53.895 26.903 69.418 4.412 8.27 13.235 25.751 17.068 46.86 2.386-.073 5.062.29 7.883 1.015 9.98-25.896-8.462-53.823-16.851-61.584-3.399-3.337-3.544-4.788-1.88-4.715 9.112 8.124 21.117 24.445 25.457 42.797 2.025 8.414 2.386 17.192.289 25.896 11.86 4.933 25.963 12.984 22.202 25.243-1.591-.072-2.314 0-3.037 0 2.314-7.326-2.821-12.766-16.489-18.932-14.175-6.238-26.036-6.238-27.699 9.067-8.751 3.047-13.235 10.663-15.477 19.803-2.025 8.124-2.603 17.917-3.182 28.942-.361 5.586-2.603 13.057-4.918 21.036-23.214 16.612-55.469 23.865-82.662 5.223zm186.153-8.342c-.651 12.187-29.796 14.435-45.706 33.73-9.547 11.389-21.263 17.7-31.532 18.498-10.27.797-19.165-3.482-24.372-14-3.399-8.052-1.736-16.756.795-26.331 2.676-10.301 6.654-20.891 7.16-29.451.579-11.026 1.23-20.673 3.038-28.072 1.88-7.471 4.773-12.476 9.907-15.305.217-.145.507-.218.724-.363.578 9.575 5.279 19.295 13.596 21.399 9.112 2.393 22.202-5.441 27.771-11.824 6.509-.218 11.354-.653 16.344 3.699 7.16 6.166 5.135 21.979 12.367 30.176 7.666 8.414 10.125 14.145 9.908 17.844zm-184.706-206.297c1.446 1.378 3.399 3.264 5.785 5.15 4.773 3.772 11.427 7.689 19.744 7.689 8.389 0 16.272-4.28 22.998-7.834 3.543-1.886 7.883-5.078 10.703-7.544 2.821-2.466 4.267-4.57 2.242-4.788-2.025-.217-1.88 1.886-4.339 3.7-3.182 2.321-7.015 5.368-10.053 7.109-5.351 3.046-14.102 7.398-21.624 7.398-7.521 0-13.524-3.481-18.007-7.036-2.242-1.813-4.123-3.627-5.569-5.005-1.085-1.015-1.374-3.337-3.11-3.554-1.012-.073-1.302 2.684 1.23 4.715z" fill="#f1f1f1"/></g></svg>