<svg fill="none" height="619" viewBox="0 0 619 619" width="619" xmlns="http://www.w3.org/2000/svg" xmlns:xlink="http://www.w3.org/1999/xlink"><linearGradient id="a" gradientUnits="userSpaceOnUse" x1="13.929" x2="605.386" y1="605.265" y2="13.8068"><stop offset="0" stop-color="#623079"/><stop offset=".6784" stop-color="#8b44ac"/></linearGradient><path d="m539.777 619h3.711c38.715 0 70.522-28.997 74.976-66.508l.536-251.295c-4.401-167.094-141.26-301.197-309.445-301.197-170.963 0-309.555 138.568-309.555 309.5 0 169.103 135.642 306.578 304.077 309.5z" fill="url(#a)"/><path d="m328.261 248.957v-3.024l-9.403.645c-2.663.168-4.662.734-6.006 1.689-1.345.964-2.017 2.3-2.017 4.006 0 1.663.663 2.989 1.999 3.971 1.327.99 3.114 1.476 5.343 1.476 1.424 0 2.76-.221 3.989-.654 1.23-.433 2.309-1.044 3.211-1.822.903-.769 1.61-1.689 2.115-2.759.513-1.07.769-2.246.769-3.528zm-18.497-121.746c-102.426 0-183.552 81.096-183.552 183.486 0 102.399 81.126 183.486 183.552 183.486 102.427 0 183.553-81.087 183.553-183.486 0-102.39-81.117-183.486-183.553-183.486zm35.632 108.756c.867-2.432 2.087-4.518 3.671-6.252 1.583-1.733 3.485-3.068 5.714-4.005 2.229-.938 4.715-1.406 7.448-1.406 2.468 0 4.698.371 6.679 1.105 1.99.734 3.689 1.724 5.113 2.971s2.557 2.697 3.388 4.36c.832 1.662 1.327 3.422 1.495 5.27h-7.369c-.185-1.017-.522-1.972-.999-2.847-.478-.876-1.106-1.636-1.884-2.282-.788-.645-1.708-1.149-2.76-1.512-1.062-.371-2.247-.548-3.583-.548-1.566 0-2.99.318-4.255.946-1.274.628-2.362 1.521-3.264 2.67-.902 1.15-1.601 2.556-2.096 4.201-.505 1.653-.752 3.484-.752 5.5 0 2.087.247 3.961.752 5.606.495 1.654 1.203 3.042 2.123 4.183.911 1.14 2.016 2.016 3.299 2.617s2.698.911 4.237.911c2.521 0 4.574-.592 6.166-1.777s2.618-2.918 3.096-5.2h7.377c-.212 2.016-.769 3.856-1.671 5.518-.903 1.662-2.07 3.077-3.503 4.253-1.442 1.176-3.132 2.087-5.078 2.724s-4.087.964-6.413.964c-2.76 0-5.246-.46-7.484-1.371-2.229-.911-4.149-2.228-5.741-3.935s-2.822-3.785-3.689-6.234c-.866-2.449-1.3-5.2-1.3-8.268-.018-2.998.416-5.721 1.283-8.162zm-104.851-11.159h7.378v6.552h.141c.451-1.088 1.044-2.069 1.769-2.918.726-.858 1.557-1.583 2.513-2.193.946-.61 1.999-1.07 3.131-1.388 1.141-.319 2.344-.478 3.6-.478 2.707 0 4.998.646 6.856 1.937 1.866 1.291 3.193 3.148 3.972 5.571h.186c.495-1.168 1.15-2.211 1.954-3.131.805-.919 1.734-1.715 2.778-2.369 1.044-.655 2.194-1.15 3.441-1.495s2.557-.513 3.937-.513c1.901 0 3.626.301 5.183.911s2.884 1.459 3.99 2.564c1.106 1.106 1.955 2.45 2.547 4.024.593 1.574.894 3.325.894 5.252v26.361h-7.696v-24.512c0-2.538-.655-4.51-1.964-5.899-1.3-1.388-3.167-2.086-5.59-2.086-1.186 0-2.274.212-3.265.627-.982.416-1.84 1-2.547 1.751-.717.743-1.274 1.645-1.672 2.688-.407 1.044-.61 2.185-.61 3.423v24.008h-7.59v-25.149c0-1.114-.177-2.122-.522-3.024s-.832-1.672-1.477-2.317c-.637-.646-1.425-1.132-2.336-1.477-.92-.345-1.946-.522-3.087-.522-1.185 0-2.282.222-3.3.664-1.008.442-1.875 1.052-2.6 1.83-.726.787-1.292 1.707-1.69 2.777-.389 1.061-1.026 2.228-1.026 3.484v23.725h-7.298zm16.746 185.157c-33.836 0-55.057-23.504-55.057-61.014 0-37.511 21.221-61.095 55.057-61.095 33.835 0 54.977 23.584 54.977 61.095 0 37.501-21.142 61.014-54.977 61.014zm62.646-146.568c-1.247.319-2.521.478-3.83.478-1.928 0-3.689-.274-5.29-.823-1.61-.548-2.981-1.317-4.131-2.316-1.15-1-2.052-2.202-2.689-3.617-.646-1.415-.964-2.989-.964-4.722 0-3.396 1.265-6.048 3.795-7.958 2.529-1.911 6.192-3.025 10.995-3.334l10.438-.601v-2.989c0-2.229-.707-3.935-2.123-5.094-1.415-1.158-3.414-1.742-6.006-1.742-1.044 0-2.026.133-2.928.389-.902.266-1.699.637-2.389 1.123-.69.487-1.265 1.07-1.707 1.751-.451.672-.761 1.433-.929 2.264h-7.236c.045-1.707.469-3.29 1.265-4.74.797-1.45 1.876-2.706 3.247-3.776s2.972-1.901 4.83-2.493c1.857-.593 3.874-.893 6.059-.893 2.353 0 4.485.291 6.396.893 1.91.601 3.547 1.441 4.9 2.546 1.354 1.106 2.398 2.432 3.132 3.989.734 1.556 1.106 3.298 1.106 5.217v26.537h-7.369v-6.447h-.186c-.548 1.044-1.238 1.99-2.079 2.83-.849.84-1.795 1.565-2.848 2.158-1.062.592-2.212 1.052-3.459 1.37zm48.679 146.568c-25.803 0-43.345-13.511-44.565-34.725h16.798c1.309 12.123 13.03 20.152 29.085 20.152 15.401 0 26.467-8.029 26.467-19.003 0-9.497-6.723-15.236-22.283-19.162l-15.161-3.767c-21.797-5.403-31.704-15.315-31.704-31.612 0-20.064 17.532-33.992 42.522-33.992 24.415 0 41.452 14.007 42.107 34.151h-16.631c-1.15-12.124-11.057-19.578-25.812-19.578-14.667 0-24.822 7.534-24.822 18.428 0 8.595 6.387 13.68 21.956 17.606l12.782 3.192c24.335 5.898 34.331 15.484 34.331 32.683-.009 21.948-17.373 35.627-45.07 35.627zm-111.325-107.05c-23.186 0-37.684 17.774-37.684 46.027 0 28.173 14.498 45.946 37.684 45.946 23.105 0 37.683-17.773 37.683-45.946.009-28.253-14.578-46.027-37.683-46.027z" fill="#fff"/></svg>